# xmcd CD database file
#
# Track frame offsets:
#	150
#	16574
#	31502
#	45368
#	61269
#	73960
#	86420
#	105473
#	119799
#	134112
#	148149
#
# Disc length: 2160 seconds
#
# Revision: 0
# Processed by: cddbd v1.5.1PL2 Copyright (c) Steve Scherf et al.
# Submitted via: CDex 1.51
#
DISCID=94086e0b
DTITLE=Dennis Marsh - Dennis Marsh
DYEAR=2005
DGENRE=Country
TTITLE0=Rose Can I Share A Bed With You
TTITLE1=On Our Laste Date
TTITLE2=Smoky Places
TTITLE3=Foolish Pride
TTITLE4=Everynight You Make My Day
TTITLE5=The Loser
TTITLE6=Winds Of October
TTITLE7=Tonight The Bottle Let Me Down
TTITLE8=Today I Started Loving You Again
TTITLE9=Land Of Enchantment
TTITLE10=Cindy Oh Cindy
EXTD=YEAR: 2005
EXTT0=
EXTT1=
EXTT2=
EXTT3=
EXTT4=
EXTT5=
EXTT6=
EXTT7=
EXTT8=
EXTT9=
EXTT10=
PLAYORDER=
